<svg width="72" height="72" xmlns="http://www.w3.org/2000/svg"><g fill="none" fill-rule="evenodd"><circle fill="#08C" cx="36" cy="36" r="36"/><path d="M52.413 23.425C51.527 21.876 49.783 21 47.626 21h-23.24c-2.168 0-3.898.883-4.79 2.425-.892 1.542-.778 3.49.31 5.357l14.53 25.302a1.831 1.831 0 0 0 3.172 0l14.495-25.305c1.079-1.868 1.187-3.818.31-5.354Zm-29.66 1.824c.31-.536 1.24-.595 1.624-.595h9.786V46.33L23.048 26.973c-.195-.35-.61-1.189-.304-1.724h.01Zm26.193 1.712L37.828 46.315V24.638h9.798c.384 0 1.31.06 1.617.592.307.533-.114 1.397-.306 1.73h.009Z" fill="#FFF" fill-rule="nonzero"/></g></svg>